# xmcd
#
# Track frame offsets:
#	150
#	18817
#	34760
#	55052
#	71650
#	87360
#	104470
#	120355
#	149330
#	167107
#	185850
#	205590
#	224315
#	245277
#	262987
#	283655
#
# Disc length: 3991 seconds
#
# Revision: 1
# Processed by: cddbd v1.5.2PL0 Copyright (c) Steve Scherf et al.
# Submitted via: audiograbber 1.83.01
#
DISCID=e40f9510
DTITLE=Various Artist - Club Hits 12
DYEAR=1991
DGENRE=Pop
TTITLE0=Gnags - Lygtemandens Sang
TTITLE1=Salt'n'Pepper - Let's Talk About Sex
TTITLE2=EMF - Lies
TTITLE3=Kaya - Trafficjam
TTITLE4=The Shamen - Mowe Any Mountain
TTITLE5=Julian Lennon - Saltwater
TTITLE6=Sea Bee - Jeg Vil Have Dig
TTITLE7=Omar - There's Nothing Like This
TTITLE8=Alberte - Tænder På Et Kys
TTITLE9=B.G. The Prince Of Rap - This Beat Is Hot
TTITLE10=Bros - Try
TTITLE11=Slick Rick - Mistaken Of A Woman In Love With Other Men
TTITLE12=Michael Learns To Rock - I Still Carry On
TTITLE13=Cookie Crew - Secrets (Of Success)
TTITLE14=Ten Sharp - You
TTITLE15=Tamra Rosanas - Would You Lie With Me
EXTD=
EXTT0=
EXTT1=
EXTT2=
EXTT3=
EXTT4=
EXTT5=
EXTT6=
EXTT7=
EXTT8=
EXTT9=
EXTT10=
EXTT11=
EXTT12=
EXTT13=
EXTT14=
EXTT15=
PLAYORDER=
